{
    "asset" : {
        "generator" : "Khronos glTF Blender I/O v3.3.32",
        "version" : "2.0"
    },
    "scene" : 0,
    "scenes" : [
        {
            "name" : "Scene",
            "nodes" : [
                0
            ]
        }
    ],
    "nodes" : [
        {
            "mesh" : 0,
            "name" : "\u7acb\u65b9\u4f53.006"
        }
    ],
    "materials" : [
        {
            "doubleSided" : true,
            "name" : "Material.006",
            "pbrMetallicRoughness" : {
                "baseColorFactor" : [
                    0.800000011920929,
                    0.800000011920929,
                    0.800000011920929,
                    1
                ],
                "metallicFactor" : 0,
                "roughnessFactor" : 0.5
            }
        },
        {
            "doubleSided" : true,
            "name" : "Material",
            "pbrMetallicRoughness" : {
                "baseColorFactor" : [
                    0.800000011920929,
                    0.800000011920929,
                    0.800000011920929,
                    1
                ],
                "metallicFactor" : 0,
                "roughnessFactor" : 0.5
            }
        },
        {
            "doubleSided" : true,
            "name" : "Material.004",
            "pbrMetallicRoughness" : {
                "baseColorFactor" : [
                    0.800000011920929,
                    0.800000011920929,
                    0.800000011920929,
                    1
                ],
                "metallicFactor" : 0,
                "roughnessFactor" : 0.5
            }
        },
        {
            "doubleSided" : true,
            "name" : "Material.005",
            "pbrMetallicRoughness" : {
                "baseColorFactor" : [
                    0.800000011920929,
                    0.800000011920929,
                    0.800000011920929,
                    1
                ],
                "metallicFactor" : 0,
                "roughnessFactor" : 0.5
            }
        }
    ],
    "meshes" : [
        {
            "name" : "\u7acb\u65b9\u4f53.006",
            "primitives" : [
                {
                    "attributes" : {
                        "POSITION" : 0,
                        "NORMAL" : 1,
                        "TEXCOORD_0" : 2,
                        "TEXCOORD_1" : 3
                    },
                    "indices" : 4,
                    "material" : 0
                },
                {
                    "attributes" : {
                        "POSITION" : 5,
                        "NORMAL" : 6,
                        "TEXCOORD_0" : 7,
                        "TEXCOORD_1" : 8
                    },
                    "indices" : 9,
                    "material" : 1
                },
                {
                    "attributes" : {
                        "POSITION" : 10,
                        "NORMAL" : 11,
                        "TEXCOORD_0" : 12,
                        "TEXCOORD_1" : 13
                    },
                    "indices" : 14,
                    "material" : 2
                },
                {
                    "attributes" : {
                        "POSITION" : 15,
                        "NORMAL" : 16,
                        "TEXCOORD_0" : 17,
                        "TEXCOORD_1" : 18
                    },
                    "indices" : 4,
                    "material" : 3
                }
            ]
        }
    ],
    "accessors" : [
        {
            "bufferView" : 0,
            "componentType" : 5126,
            "count" : 4752,
            "max" : [
                50.980777740478516,
                5.061206817626953,
                9.396614074707031
            ],
            "min" : [
                25.690296173095703,
                -5.191187381744385,
                7.32037353515625
            ],
            "type" : "VEC3"
        },
        {
            "bufferView" : 1,
            "componentType" : 5126,
            "count" : 4752,
            "type" : "VEC3"
        },
        {
            "bufferView" : 2,
            "componentType" : 5126,
            "count" : 4752,
            "type" : "VEC2"
        },
        {
            "bufferView" : 3,
            "componentType" : 5126,
            "count" : 4752,
            "type" : "VEC2"
        },
        {
            "bufferView" : 4,
            "componentType" : 5123,
            "count" : 4752,
            "type" : "SCALAR"
        },
        {
            "bufferView" : 5,
            "componentType" : 5126,
            "count" : 4776,
            "max" : [
                50.00000762939453,
                5.061206817626953,
                8.911086082458496
            ],
            "min" : [
                -50.34391403198242,
                -5.191187381744385,
                -8
            ],
            "type" : "VEC3"
        },
        {
            "bufferView" : 6,
            "componentType" : 5126,
            "count" : 4776,
            "type" : "VEC3"
        },
        {
            "bufferView" : 7,
            "componentType" : 5126,
            "count" : 4776,
            "type" : "VEC2"
        },
        {
            "bufferView" : 8,
            "componentType" : 5126,
            "count" : 4776,
            "type" : "VEC2"
        },
        {
            "bufferView" : 9,
            "componentType" : 5123,
            "count" : 4788,
            "type" : "SCALAR"
        },
        {
            "bufferView" : 10,
            "componentType" : 5126,
            "count" : 4752,
            "max" : [
                0.5097841024398804,
                5.061206817626953,
                9.121793746948242
            ],
            "min" : [
                -25.204872131347656,
                -5.191187381744385,
                7.045553207397461
            ],
            "type" : "VEC3"
        },
        {
            "bufferView" : 11,
            "componentType" : 5126,
            "count" : 4752,
            "type" : "VEC3"
        },
        {
            "bufferView" : 12,
            "componentType" : 5126,
            "count" : 4752,
            "type" : "VEC2"
        },
        {
            "bufferView" : 13,
            "componentType" : 5126,
            "count" : 4752,
            "type" : "VEC2"
        },
        {
            "bufferView" : 14,
            "componentType" : 5123,
            "count" : 4752,
            "type" : "SCALAR"
        },
        {
            "bufferView" : 15,
            "componentType" : 5126,
            "count" : 4752,
            "max" : [
                25.938854217529297,
                5.061206817626953,
                9.396614074707031
            ],
            "min" : [
                0.1550406515598297,
                -5.191187381744385,
                7.32037353515625
            ],
            "type" : "VEC3"
        },
        {
            "bufferView" : 16,
            "componentType" : 5126,
            "count" : 4752,
            "type" : "VEC3"
        },
        {
            "bufferView" : 17,
            "componentType" : 5126,
            "count" : 4752,
            "type" : "VEC2"
        },
        {
            "bufferView" : 18,
            "componentType" : 5126,
            "count" : 4752,
            "type" : "VEC2"
        }
    ],
    "bufferViews" : [
        {
            "buffer" : 0,
            "byteLength" : 57024,
            "byteOffset" : 0,
            "target" : 34962
        },
        {
            "buffer" : 0,
            "byteLength" : 57024,
            "byteOffset" : 57024,
            "target" : 34962
        },
        {
            "buffer" : 0,
            "byteLength" : 38016,
            "byteOffset" : 114048,
            "target" : 34962
        },
        {
            "buffer" : 0,
            "byteLength" : 38016,
            "byteOffset" : 152064,
            "target" : 34962
        },
        {
            "buffer" : 0,
            "byteLength" : 9504,
            "byteOffset" : 190080,
            "target" : 34963
        },
        {
            "buffer" : 0,
            "byteLength" : 57312,
            "byteOffset" : 199584,
            "target" : 34962
        },
        {
            "buffer" : 0,
            "byteLength" : 57312,
            "byteOffset" : 256896,
            "target" : 34962
        },
        {
            "buffer" : 0,
            "byteLength" : 38208,
            "byteOffset" : 314208,
            "target" : 34962
        },
        {
            "buffer" : 0,
            "byteLength" : 38208,
            "byteOffset" : 352416,
            "target" : 34962
        },
        {
            "buffer" : 0,
            "byteLength" : 9576,
            "byteOffset" : 390624,
            "target" : 34963
        },
        {
            "buffer" : 0,
            "byteLength" : 57024,
            "byteOffset" : 400200,
            "target" : 34962
        },
        {
            "buffer" : 0,
            "byteLength" : 57024,
            "byteOffset" : 457224,
            "target" : 34962
        },
        {
            "buffer" : 0,
            "byteLength" : 38016,
            "byteOffset" : 514248,
            "target" : 34962
        },
        {
            "buffer" : 0,
            "byteLength" : 38016,
            "byteOffset" : 552264,
            "target" : 34962
        },
        {
            "buffer" : 0,
            "byteLength" : 9504,
            "byteOffset" : 590280,
            "target" : 34963
        },
        {
            "buffer" : 0,
            "byteLength" : 57024,
            "byteOffset" : 599784,
            "target" : 34962
        },
        {
            "buffer" : 0,
            "byteLength" : 57024,
            "byteOffset" : 656808,
            "target" : 34962
        },
        {
            "buffer" : 0,
            "byteLength" : 38016,
            "byteOffset" : 713832,
            "target" : 34962
        },
        {
            "buffer" : 0,
            "byteLength" : 38016,
            "byteOffset" : 751848,
            "target" : 34962
        }
    ],
    "buffers" : [
        {
            "byteLength" : 789864,
            "uri" : "asiba.bin"
        }
    ]
}
