{
	"asset":{
		"generator":"Khronos glTF Blender I/O v3.5.30",
		"version":"2.0"
	},
	"scene":0,
	"scenes":[
		{
			"name":"Scene",
			"nodes":[
				0
			]
		}
	],
	"nodes":[
		{
			"mesh":0,
			"name":"\u7acb\u65b9\u4f53.001",
			"scale":[
				1.0135964155197144,
				0.668662428855896,
				0.989328920841217
			],
			"translation":[
				7.513993263244629,
				-6.932250022888184,
				0.40174606442451477
			]
		}
	],
	"materials":[
		{
			"doubleSided":true,
			"name":"Material",
			"pbrMetallicRoughness":{
				"baseColorTexture":{
					"index":0
				},
				"metallicFactor":0,
				"roughnessFactor":0.5
			}
		}
	],
	"meshes":[
		{
			"name":"\u7acb\u65b9\u4f53.010",
			"primitives":[
				{
					"attributes":{
						"POSITION":0,
						"TEXCOORD_0":1,
						"TEXCOORD_1":2,
						"NORMAL":3
					},
					"indices":4,
					"material":0
				}
			]
		}
	],
	"textures":[
		{
			"sampler":0,
			"source":0
		}
	],
	"images":[
		{
			"mimeType":"image/png",
			"name":"youtubes",
			"uri":"youtubes.png"
		}
	],
	"accessors":[
		{
			"bufferView":0,
			"componentType":5126,
			"count":405,
			"max":[
				5.455470085144043,
				22.288454055786133,
				1.0495301485061646
			],
			"min":[
				-20.281871795654297,
				-1.5537757873535156,
				-1.4168657064437866
			],
			"type":"VEC3"
		},
		{
			"bufferView":1,
			"componentType":5126,
			"count":405,
			"type":"VEC2"
		},
		{
			"bufferView":2,
			"componentType":5126,
			"count":405,
			"type":"VEC2"
		},
		{
			"bufferView":3,
			"componentType":5126,
			"count":405,
			"type":"VEC3"
		},
		{
			"bufferView":4,
			"componentType":5123,
			"count":750,
			"type":"SCALAR"
		}
	],
	"bufferViews":[
		{
			"buffer":0,
			"byteLength":4860,
			"byteOffset":0,
			"target":34962
		},
		{
			"buffer":0,
			"byteLength":3240,
			"byteOffset":4860,
			"target":34962
		},
		{
			"buffer":0,
			"byteLength":3240,
			"byteOffset":8100,
			"target":34962
		},
		{
			"buffer":0,
			"byteLength":4860,
			"byteOffset":11340,
			"target":34962
		},
		{
			"buffer":0,
			"byteLength":1500,
			"byteOffset":16200,
			"target":34963
		}
	],
	"samplers":[
		{
			"magFilter":9729,
			"minFilter":9987
		}
	],
	"buffers":[
		{
			"byteLength":17700,
			"uri":"youtubes.bin"
		}
	]
}
